<?xml version="1.0" encoding="utf-8"?>
<!-- Generator: Adobe Illustrator 16.0.0, SVG Export Plug-In . SVG Version: 6.00 Build 0)  -->
<!DOCTYPE svg PUBLIC "-//W3C//DTD SVG 1.1//EN" "http://www.w3.org/Graphics/SVG/1.1/DTD/svg11.dtd">
<svg version="1.1" id="圖層_1" xmlns="http://www.w3.org/2000/svg" xmlns:xlink="http://www.w3.org/1999/xlink" x="0px" y="0px"
	 width="160px" height="57.607px" viewBox="0 0 160 57.607" enable-background="new 0 0 160 57.607" xml:space="preserve">
<g>
	<g>
		<path fill="#262729" d="M102.878,52.432c-1.523,0.33-2.381-0.615-1.904-2.1l0.571-1.777c0.477-1.484,1.724-1.755,2.771-0.601
			l1.255,1.383c1.048,1.154,0.658,2.368-0.865,2.698L102.878,52.432z"/>
	</g>
	<g>
		<path fill="#262729" d="M86.832,52.432c-1.523,0.33-2.381-0.615-1.904-2.1l0.57-1.777c0.477-1.484,1.724-1.755,2.771-0.601
			l1.254,1.383c1.048,1.154,0.658,2.368-0.865,2.698L86.832,52.432z"/>
	</g>
	<g>
		<path fill="#232222" d="M78.185,6.741h9.976c1.011,0,1.517,0.506,1.517,1.516v3.101c0,1-0.506,1.5-1.517,1.5h-7.253
			c-0.266,0.494-0.673,0.999-1.224,1.516h9.527c1.01,0,1.513,0.505,1.513,1.516c-0.066,2.217-0.255,3.813-0.565,4.789
			c-0.126,0.62-0.432,1.011-0.912,1.171c-0.378,0.218-0.896,0.329-1.549,0.329c-0.717,0-1.588-0.161-2.621-0.482
			c-0.161-0.103-0.253-0.241-0.276-0.413c0.013-0.312,0.165-0.473,0.464-0.482h0.104c0.989,0.32,1.763,0.482,2.329,0.482
			c0.388,0,0.697-0.063,0.929-0.19c0.264-0.091,0.448-0.271,0.552-0.535c0.171-0.354,0.299-0.917,0.378-1.687
			c0.171-1.021,0.259-1.969,0.259-2.843c0-0.55-0.277-0.826-0.829-0.826h-1.602c-0.012,0.045-0.022,0.091-0.031,0.137
			c-1.117,2.047-2.128,3.492-3.035,4.341c-1.252,1.138-2.468,1.931-3.653,2.378c-0.32,0.126-0.509,0.19-0.568,0.19
			c-0.253-0.035-0.384-0.196-0.395-0.484c0.021-0.17,0.113-0.287,0.274-0.343c1.642-0.746,2.884-1.539,3.722-2.377
			c0.861-0.815,1.762-2.096,2.703-3.841h-2.929c-0.01,0.045-0.026,0.091-0.05,0.137c-1.255,1.575-2.379,2.688-3.378,3.343
			c-1.39,0.873-2.745,1.486-4.065,1.842c-0.357,0.092-0.563,0.139-0.62,0.139c-0.276-0.035-0.42-0.196-0.432-0.482
			c0.035-0.172,0.132-0.289,0.294-0.345c1.848-0.562,3.238-1.166,4.169-1.809c0.94-0.609,1.935-1.551,2.981-2.825H78.65h-0.018
			C78.38,15.373,78.1,15.54,77.789,15.7c-0.701,0.368-1.447,0.685-2.24,0.947c-0.068,0.047-0.176,0.071-0.326,0.071
			c-0.289-0.047-0.451-0.179-0.483-0.398c0.01-0.172,0.052-0.315,0.12-0.431c0.7-0.218,1.304-0.435,1.809-0.653
			c0.85-0.369,1.493-0.718,1.93-1.053c0.495-0.39,0.937-0.832,1.326-1.326h-1.74c-1.01,0-1.516-0.5-1.516-1.5V8.257
			C76.669,7.247,77.175,6.741,78.185,6.741z M77.564,9.411h11.234V8.394c0-0.551-0.275-0.825-0.829-0.825h-9.577
			c-0.553,0-0.829,0.274-0.829,0.825V9.411z M87.97,12.048c0.554,0,0.829-0.275,0.829-0.827v-0.964H77.564v0.964
			c0,0.551,0.276,0.827,0.829,0.827H87.97z"/>
		<path fill="#232222" d="M100.513,6.12c0.298,0.013,0.457,0.174,0.482,0.484v0.603h5.995c1.059,0,1.586,0.579,1.586,1.739
			c0,0.563-0.145,1.201-0.433,1.912c-0.124,0.196-0.303,0.293-0.533,0.293c-0.24-0.045-0.378-0.188-0.412-0.431
			c0-0.069,0.017-0.143,0.051-0.225c0.125-0.286,0.236-0.589,0.329-0.912c0.065-0.344,0.103-0.631,0.103-0.862
			c0-0.447-0.253-0.672-0.759-0.672h-4.085v1.448c0,0.402,0.213,0.602,0.641,0.602h1.375c0.195,0,0.353-0.045,0.469-0.136
			c0.078-0.057,0.128-0.311,0.153-0.759c0-0.252,0.132-0.386,0.396-0.395c0.263,0.009,0.406,0.188,0.429,0.533
			c0,0.23-0.026,0.471-0.085,0.723c-0.035,0.288-0.166,0.483-0.396,0.585c-0.242,0.14-0.564,0.207-0.967,0.207h-1.583
			c-0.827,0-1.239-0.407-1.239-1.223V8.05h-3.12c-0.046,0.495-0.137,0.909-0.276,1.241c-0.183,0.413-0.429,0.747-0.739,1
			c-0.311,0.23-0.708,0.414-1.188,0.551c-0.415,0.15-0.938,0.254-1.566,0.31c-0.253-0.045-0.398-0.229-0.432-0.55
			c0.022-0.207,0.164-0.351,0.432-0.431c0.525-0.034,0.938-0.099,1.241-0.19c0.375-0.091,0.693-0.224,0.945-0.396
			c0.242-0.173,0.431-0.408,0.568-0.707c0.093-0.242,0.154-0.517,0.19-0.828h-3.773c-0.46,0-0.689,0.226-0.689,0.672v2.207
			c0,0.287-0.16,0.429-0.481,0.429c-0.286,0-0.431-0.143-0.431-0.429V8.515c0-0.873,0.436-1.309,1.31-1.309h5.994V6.604
			C100.023,6.294,100.19,6.133,100.513,6.12z M96.291,11.772h8.632c0.919,0,1.377,0.455,1.377,1.362v2.687h0.07
			c0.92,0,1.378,0.466,1.378,1.395v3.514c0,1.011-0.504,1.518-1.515,1.518c-0.508,0-1.058-0.144-1.654-0.433
			c-0.206-0.057-0.322-0.188-0.345-0.395c0.022-0.3,0.182-0.461,0.483-0.483c0.008,0,0.046,0.006,0.104,0.019
			c0.493,0.264,0.89,0.395,1.188,0.395c0.563,0,0.842-0.275,0.842-0.827v-3.186c0-0.46-0.23-0.69-0.688-0.69H95.069
			c-0.459,0-0.688,0.23-0.688,0.69v4.547c0,0.288-0.162,0.432-0.483,0.432c-0.287,0-0.43-0.144-0.43-0.432v-4.669
			c0-0.929,0.458-1.395,1.379-1.395h0.067v-2.687C94.914,12.227,95.372,11.772,96.291,11.772z M95.759,15.821h3.858v-0.947
			c0-0.792,0.386-1.189,1.153-1.189h4.704v-0.396c0-0.46-0.23-0.69-0.688-0.69h-8.354c-0.45,0-0.673,0.229-0.673,0.69V15.821z
			 M97.344,17.699h6.819c0.727,0,1.087,0.361,1.087,1.085v0.708c0,0.735-0.36,1.1-1.087,1.1h-6.819c-0.746,0-1.121-0.365-1.121-1.1
			v-0.708C96.223,18.06,96.598,17.699,97.344,17.699z M104.027,19.75c0.265,0,0.396-0.131,0.396-0.396v-0.432
			c0-0.262-0.132-0.396-0.396-0.396h-6.544c-0.292,0-0.434,0.134-0.434,0.396v0.432c0,0.265,0.142,0.396,0.434,0.396H104.027z
			 M100.443,15.821h5.031v-1.379h-4.479c-0.369,0-0.552,0.19-0.552,0.568V15.821z"/>
		<path fill="#232222" d="M111.867,8.946h0.842V6.604c0.012-0.276,0.146-0.419,0.397-0.432c0.311,0.013,0.478,0.156,0.501,0.432
			v2.342h0.945c0.84,0,1.261,0.408,1.261,1.224v5.46c0,0.828-0.421,1.242-1.261,1.242h-0.945v3.807
			c0.663-0.149,1.318-0.332,1.962-0.55c-0.204-0.507-0.401-0.931-0.584-1.276c-0.082-0.114-0.133-0.2-0.154-0.257
			c0.033-0.265,0.154-0.408,0.358-0.432c0.141,0,0.276,0.076,0.417,0.225c0.365,0.598,0.821,1.654,1.361,3.17v0.257
			c-0.023,0.219-0.157,0.341-0.399,0.363c-0.136,0-0.257-0.075-0.359-0.224c-0.115-0.357-0.225-0.694-0.328-1.017
			c-0.059,0.034-0.127,0.057-0.207,0.069c-1.563,0.505-3.285,0.849-5.17,1.034c-0.288-0.034-0.447-0.196-0.48-0.482
			c0.022-0.242,0.182-0.387,0.48-0.432c0.736-0.046,1.474-0.133,2.205-0.258v-3.996h-0.842c-0.817,0-1.225-0.414-1.225-1.242v-5.46
			C110.643,9.354,111.05,8.946,111.867,8.946z M112.709,16.027V9.773h-0.481c-0.46,0-0.688,0.23-0.688,0.691v4.874
			c0,0.46,0.229,0.689,0.688,0.689H112.709z M114.227,16.027c0.459,0,0.689-0.229,0.689-0.689v-4.874
			c0-0.461-0.23-0.691-0.689-0.691h-0.619v6.254H114.227z M119.859,6.448h4.343c0.597,0,0.896,0.282,0.896,0.845
			c0,0.126-0.097,0.368-0.293,0.724c-0.412,0.735-0.987,1.454-1.723,2.154c-0.219,0.207-0.436,0.397-0.655,0.568
			c0.094,0.048,0.191,0.093,0.295,0.139c0.709,0.367,1.875,0.774,3.496,1.222c0.161,0.069,0.246,0.213,0.259,0.432
			c-0.023,0.241-0.154,0.373-0.396,0.396c-0.092,0-0.242-0.029-0.448-0.086c-1.379-0.378-2.584-0.85-3.617-1.414
			c-0.128-0.058-0.242-0.121-0.347-0.189c-0.494,0.288-1.034,0.534-1.619,0.741c-1.113,0.401-2.372,0.719-3.775,0.948
			c-0.239-0.023-0.371-0.155-0.394-0.396c0.012-0.265,0.143-0.409,0.394-0.432c1.53-0.265,2.64-0.534,3.328-0.809
			c0.459-0.161,0.88-0.345,1.257-0.553c-0.311-0.217-0.603-0.447-0.878-0.688c-0.493-0.505-0.896-1.039-1.205-1.602
			c-0.45,0.448-0.907,0.82-1.38,1.12h-0.275c-0.302-0.023-0.459-0.144-0.482-0.362c0.011-0.173,0.097-0.304,0.259-0.395
			c0.896-0.563,1.637-1.219,2.222-1.965C119.325,6.581,119.572,6.448,119.859,6.448z M125.599,13.564
			c0.263,0.011,0.402,0.149,0.413,0.412c-0.011,0.253-0.15,0.386-0.413,0.397h-3.601v1.81h3.1c0.265,0.011,0.407,0.144,0.432,0.396
			c-0.024,0.263-0.167,0.407-0.432,0.431h-3.1v1.843h3.857c0.266,0.013,0.406,0.155,0.432,0.432
			c-0.025,0.252-0.166,0.384-0.432,0.395h-3.857v2.206c-0.013,0.265-0.147,0.408-0.398,0.432c-0.31-0.023-0.47-0.167-0.479-0.432
			v-2.206h-4.292c-0.253-0.011-0.386-0.143-0.396-0.395c0.01-0.276,0.143-0.419,0.396-0.432h4.292V17.01h-3.396
			c-0.253-0.023-0.385-0.168-0.397-0.431c0.013-0.252,0.145-0.384,0.397-0.396h3.396v-1.81h-3.86
			c-0.275-0.011-0.419-0.144-0.432-0.397c0.013-0.263,0.156-0.401,0.432-0.412h3.86v-1.189c0.01-0.253,0.17-0.384,0.479-0.396
			c0.251,0.012,0.386,0.143,0.398,0.396v1.189H125.599z M119.361,7.792c0.011,0.013,0.023,0.024,0.034,0.034
			c0.333,0.644,0.765,1.212,1.293,1.707c0.265,0.24,0.573,0.481,0.93,0.724c0.123-0.105,0.24-0.202,0.345-0.293
			c0.782-0.69,1.396-1.401,1.844-2.138c0.182-0.298,0.274-0.475,0.274-0.534h-3.995c-0.195,0-0.357,0.063-0.483,0.189
			C119.521,7.596,119.439,7.699,119.361,7.792z"/>
	</g>
	<g>
		<path fill="#262729" d="M135.603,51.809h-7.821c-1.767,0-3.688-1.109-4.57-2.639l-3.911-6.773c-0.882-1.529-0.882-3.747,0-5.275
			l3.911-6.775c0.883-1.528,2.805-2.638,4.57-2.638h7.821c1.766,0,3.688,1.109,4.569,2.64l3.91,6.771
			c0.883,1.53,0.883,3.748,0,5.276l-3.91,6.776C139.291,50.7,137.368,51.809,135.603,51.809z M127.845,46.671h7.692
			c0.065-0.024,0.161-0.078,0.212-0.125l3.85-6.663c0.013-0.067,0.013-0.181,0-0.249l-3.848-6.66
			c-0.053-0.047-0.148-0.102-0.214-0.125h-7.692c-0.065,0.023-0.162,0.078-0.214,0.125l-3.847,6.66
			c-0.013,0.068-0.013,0.182,0,0.249l3.847,6.663C127.683,46.593,127.779,46.646,127.845,46.671z"/>
	</g>
	<g>
		<path fill="#262729" d="M146.302,17.232h-3.063c-0.688,0-1.44-0.436-1.786-1.033l-1.532-2.652c-0.345-0.598-0.345-1.466,0-2.065
			l1.532-2.651c0.346-0.599,1.098-1.033,1.786-1.033h3.063c0.692,0,1.443,0.435,1.79,1.033l1.53,2.651
			c0.346,0.599,0.346,1.467,0,2.065l-1.531,2.652C147.745,16.796,146.994,17.232,146.302,17.232z M143.265,15.219h3.014
			c0.025-0.008,0.062-0.028,0.082-0.047l1.507-2.608c0.005-0.026,0.005-0.07,0-0.097l-1.507-2.608
			c-0.021-0.02-0.057-0.04-0.082-0.048h-3.014c-0.026,0.008-0.062,0.031-0.082,0.048l-1.506,2.608c-0.006,0.026-0.006,0.071,0,0.097
			l1.506,2.608C143.203,15.189,143.238,15.21,143.265,15.219z"/>
	</g>
	<g>
		<path fill="#262729" d="M149.766,32.118h-4.177c-0.943,0-1.97-0.594-2.441-1.41l-2.09-3.619c-0.472-0.815-0.472-2,0-2.817
			l2.09-3.62c0.472-0.815,1.498-1.409,2.441-1.409h4.177c0.946,0,1.971,0.594,2.444,1.41l2.088,3.619
			c0.472,0.817,0.472,2.002,0,2.817l-2.091,3.621C151.736,31.524,150.712,32.118,149.766,32.118z M145.623,29.371h4.109
			c0.035-0.009,0.087-0.04,0.113-0.065l2.057-3.558c0.007-0.037,0.007-0.097,0-0.133l-2.057-3.559
			c-0.026-0.026-0.078-0.056-0.113-0.065h-4.109c-0.034,0.009-0.086,0.041-0.112,0.065l-2.057,3.559
			c-0.009,0.036-0.009,0.096,0,0.133l2.057,3.558C145.537,29.33,145.589,29.362,145.623,29.371z"/>
	</g>
	<g>
		<path fill="#262729" d="M132.075,14.48h3.713c0.837,0,1.749,0.526,2.167,1.252l1.855,3.213c0.42,0.727,0.42,1.778,0,2.506
			l-1.855,3.214c-0.418,0.724-1.33,1.252-2.167,1.252h-3.713c-0.838,0-1.748-0.528-2.167-1.254l-1.855-3.212
			c-0.42-0.728-0.42-1.779,0-2.503l1.855-3.218C130.327,15.006,131.237,14.48,132.075,14.48z M135.756,16.919h-3.649
			c-0.031,0.012-0.076,0.038-0.102,0.059l-1.825,3.163c-0.007,0.033-0.007,0.086,0,0.117l1.825,3.163
			c0.025,0.022,0.07,0.048,0.102,0.058h3.649c0.032-0.01,0.078-0.037,0.103-0.058l1.825-3.163c0.006-0.03,0.006-0.084,0-0.117
			l-1.825-3.161C135.834,16.956,135.788,16.93,135.756,16.919z"/>
	</g>
	<path fill="#262729" d="M116.681,30.341c0-1.753-0.856-2.632-2.569-2.632c-1.755,0-2.63,0.88-2.63,2.64v12.266
		c-0.023,0.06-0.06,0.132-0.096,0.174l-5.921,3.876c-0.064,0.013-0.169,0.013-0.231,0l-3.709-2.255
		c0.119-0.297,0.295-0.598,0.357-0.901v-0.002V30.341c0-1.753-0.858-2.632-2.569-2.632c-1.757,0-2.63,0.878-2.63,2.632V42.62
		c-0.028,0.064-0.077,0.148-0.12,0.196l-7.51,3.848c-0.072,0.013-0.195,0.013-0.267,0l-7.355-3.849
		c-0.049-0.053-0.109-0.148-0.132-0.215v-12.26c0-1.753-0.878-2.632-2.631-2.632c-1.815,0-2.722,0.878-2.722,2.632v12.271h0.006
		c0.043,1.746,1.217,3.76,2.834,4.624l7.293,3.912c1.645,0.883,4.034,0.883,5.68,0l5.903-3.167l5.224,3.178
		c1.441,0.875,3.525,0.867,4.96-0.021l6.352-3.939c1.396-0.865,2.404-2.707,2.455-4.433h0.027V30.341z"/>
	<rect x="102.315" y="33.895" fill="#232222" width="8.734" height="2.289"/>
	<rect x="81.757" y="33.893" fill="#232222" width="14.479" height="2.291"/>
	<rect x="102.315" y="39.69" fill="#232222" width="8.734" height="2.289"/>
	<rect x="81.757" y="39.688" fill="#232222" width="14.479" height="2.291"/>
	<rect x="102.315" y="36.706" fill="#EF7622" width="8.734" height="2.533"/>
	<rect x="81.757" y="36.706" fill="#EF7622" width="14.479" height="2.533"/>
	<path fill="#EF7622" d="M102.315,43.596c-0.047,0.229-0.131,0.436-0.223,0.635l3.252,1.977l5.688-3.725v-0.006h-8.718V43.596z"/>
	<polygon fill="#EF7622" points="88.916,46.225 88.926,46.225 96.236,42.482 96.236,42.477 81.75,42.477 	"/>
	<g>
		<path fill="#D9272E" d="M34.151,51.206L34.151,51.206c-11.286,0-20.618-8.346-22.17-19.203H26.15c1.768,0,3.202-1.432,3.202-3.2
			c0-1.766-1.434-3.199-3.202-3.199H11.981c1.553-10.854,10.88-19.2,22.163-19.203c0.002,0,0.005,0.001,0.008,0.001
			c1.769,0,3.201-1.433,3.201-3.201c0-1.768-1.432-3.2-3.201-3.201l0,0l0,0l0,0H34.15C18.243,0,5.349,12.897,5.349,28.803
			c0,15.908,12.894,28.804,28.801,28.804h0.001l0,0l0,0l0,0c1.769,0,3.201-1.433,3.201-3.2S35.92,51.207,34.151,51.206z"/>
		<path fill="#EF7622" d="M70.81,28.803c0-4.166-0.894-8.12-2.487-11.694v0.003c-0.784-1.585-2.703-2.236-4.287-1.452
			c-1.586,0.783-2.235,2.703-1.454,4.288v0.005c1.171,2.717,1.826,5.705,1.826,8.851c0,10.703-7.507,19.646-17.542,21.868
			l14.479-37.724l0.662-1.727c0.212-0.429,0.309-0.935,0.309-1.446c0-1.03-0.486-1.944-1.243-2.528l0.002-0.002
			c0,0-0.009-0.007-0.017-0.017c-0.979-0.866-2.015-1.668-3.107-2.396C53.388,1.785,47.909,0,42.008,0l0,0h-0.001
			c-1.767,0-3.2,1.433-3.2,3.201c0,1.768,1.433,3.201,3.201,3.201c0.002,0,0.004-0.001,0.006-0.001
			c4.985,0.001,9.584,1.641,13.304,4.399L39.019,53.262h0.002c-0.137,0.354-0.215,0.74-0.215,1.145c0,1.768,1.433,3.2,3.2,3.2l0,0
			h0.001l0,0l0,0C57.915,57.607,70.81,44.712,70.81,28.803z"/>
	</g>
</g>
</svg>
