<?xml version="1.0" encoding="utf-8"?>
<!-- Generator: Adobe Illustrator 16.0.0, SVG Export Plug-In . SVG Version: 6.00 Build 0)  -->
<!DOCTYPE svg PUBLIC "-//W3C//DTD SVG 1.1//EN" "http://www.w3.org/Graphics/SVG/1.1/DTD/svg11.dtd">
<svg version="1.1" id="圖層_1" xmlns="http://www.w3.org/2000/svg" xmlns:xlink="http://www.w3.org/1999/xlink" x="0px" y="0px"
	 width="160px" height="57.607px" viewBox="0 0 160 57.607" enable-background="new 0 0 160 57.607" xml:space="preserve">
<g>
	<path fill="#FFFFFF" d="M102.878,52.432c-1.522,0.33-2.381-0.615-1.903-2.101l0.57-1.776c0.477-1.484,1.725-1.756,2.771-0.602
		l1.254,1.383c1.049,1.154,0.658,2.368-0.864,2.698L102.878,52.432z"/>
</g>
<g>
	<path fill="#FFFFFF" d="M86.832,52.432c-1.523,0.33-2.381-0.615-1.904-2.101l0.57-1.776c0.477-1.484,1.725-1.756,2.771-0.602
		l1.254,1.383c1.047,1.154,0.658,2.368-0.865,2.698L86.832,52.432z"/>
</g>
<g>
	<path fill="#FFFFFF" d="M78.185,6.741h9.976c1.011,0,1.517,0.506,1.517,1.516v3.102c0,1-0.506,1.5-1.517,1.5h-7.253
		c-0.266,0.494-0.673,0.999-1.224,1.516h9.527c1.01,0,1.514,0.505,1.514,1.517c-0.066,2.217-0.256,3.813-0.565,4.789
		c-0.126,0.619-0.433,1.011-0.912,1.171c-0.378,0.218-0.896,0.329-1.549,0.329c-0.718,0-1.589-0.161-2.621-0.482
		c-0.161-0.103-0.253-0.241-0.276-0.413c0.014-0.312,0.165-0.473,0.465-0.481h0.104c0.988,0.319,1.763,0.481,2.328,0.481
		c0.389,0,0.697-0.063,0.93-0.189c0.264-0.092,0.448-0.271,0.553-0.535c0.17-0.354,0.299-0.917,0.377-1.688
		c0.172-1.021,0.26-1.969,0.26-2.843c0-0.55-0.277-0.826-0.83-0.826h-1.602c-0.012,0.045-0.021,0.091-0.031,0.137
		c-1.117,2.048-2.127,3.492-3.035,4.342c-1.252,1.138-2.467,1.931-3.652,2.378c-0.32,0.126-0.509,0.189-0.568,0.189
		c-0.253-0.035-0.384-0.195-0.395-0.483c0.021-0.17,0.113-0.287,0.274-0.344c1.642-0.745,2.884-1.539,3.722-2.377
		c0.861-0.814,1.762-2.096,2.703-3.841h-2.93c-0.01,0.045-0.025,0.091-0.05,0.137c-1.255,1.575-2.379,2.688-3.378,3.344
		c-1.39,0.873-2.745,1.485-4.065,1.842c-0.357,0.092-0.563,0.139-0.62,0.139c-0.276-0.035-0.42-0.195-0.432-0.481
		c0.035-0.172,0.132-0.289,0.294-0.346c1.848-0.562,3.238-1.166,4.169-1.809c0.94-0.609,1.935-1.551,2.981-2.825H78.65h-0.018
		C78.38,15.373,78.1,15.54,77.789,15.7c-0.701,0.368-1.447,0.686-2.24,0.947c-0.068,0.047-0.176,0.071-0.326,0.071
		c-0.289-0.048-0.451-0.18-0.483-0.398c0.01-0.172,0.052-0.315,0.12-0.431c0.7-0.219,1.304-0.436,1.809-0.653
		c0.85-0.369,1.493-0.718,1.93-1.053c0.495-0.391,0.937-0.832,1.326-1.326h-1.74c-1.01,0-1.516-0.5-1.516-1.5V8.257
		C76.669,7.247,77.175,6.741,78.185,6.741z M77.564,9.411h11.234V8.394c0-0.551-0.274-0.825-0.829-0.825h-9.577
		c-0.553,0-0.829,0.274-0.829,0.825L77.564,9.411L77.564,9.411z M87.971,12.048c0.553,0,0.828-0.274,0.828-0.826v-0.965H77.564
		v0.965c0,0.551,0.276,0.826,0.829,0.826H87.971z"/>
	<path fill="#FFFFFF" d="M100.514,6.12c0.297,0.013,0.457,0.174,0.481,0.484v0.603h5.995c1.059,0,1.586,0.579,1.586,1.739
		c0,0.563-0.145,1.201-0.434,1.912c-0.123,0.196-0.303,0.293-0.533,0.293c-0.239-0.045-0.377-0.188-0.411-0.431
		c0-0.069,0.017-0.144,0.051-0.226c0.125-0.286,0.235-0.589,0.329-0.912c0.064-0.344,0.104-0.631,0.104-0.861
		c0-0.447-0.254-0.673-0.76-0.673h-4.085v1.448c0,0.402,0.213,0.603,0.642,0.603h1.375c0.194,0,0.353-0.045,0.469-0.137
		c0.078-0.057,0.128-0.311,0.152-0.759c0-0.252,0.133-0.386,0.396-0.395c0.263,0.009,0.406,0.188,0.429,0.532
		c0,0.23-0.026,0.472-0.085,0.724c-0.035,0.288-0.166,0.482-0.396,0.585c-0.241,0.14-0.563,0.207-0.967,0.207h-1.582
		c-0.828,0-1.24-0.407-1.24-1.224V8.05H98.91c-0.046,0.495-0.137,0.909-0.276,1.241c-0.183,0.413-0.429,0.747-0.739,1
		c-0.311,0.23-0.707,0.414-1.188,0.551c-0.415,0.15-0.938,0.255-1.566,0.311c-0.252-0.045-0.397-0.229-0.432-0.55
		c0.021-0.207,0.164-0.352,0.432-0.432c0.525-0.033,0.938-0.099,1.241-0.189c0.375-0.091,0.693-0.225,0.945-0.396
		c0.241-0.173,0.431-0.407,0.567-0.707c0.094-0.241,0.154-0.517,0.19-0.828h-3.772c-0.461,0-0.689,0.227-0.689,0.673v2.207
		c0,0.286-0.16,0.429-0.48,0.429c-0.287,0-0.432-0.144-0.432-0.429V8.515c0-0.873,0.436-1.31,1.311-1.31h5.994V6.604
		C100.023,6.294,100.189,6.133,100.514,6.12z M96.291,11.772h8.632c0.919,0,1.377,0.455,1.377,1.361v2.688h0.07
		c0.92,0,1.378,0.466,1.378,1.395v3.515c0,1.011-0.504,1.518-1.516,1.518c-0.508,0-1.058-0.144-1.653-0.433
		c-0.206-0.058-0.322-0.188-0.345-0.396c0.021-0.3,0.182-0.461,0.482-0.482c0.008,0,0.047,0.006,0.104,0.019
		c0.494,0.265,0.891,0.396,1.188,0.396c0.563,0,0.843-0.275,0.843-0.827v-3.187c0-0.46-0.23-0.689-0.688-0.689H95.068
		c-0.459,0-0.688,0.229-0.688,0.689v4.548c0,0.287-0.162,0.432-0.482,0.432c-0.287,0-0.431-0.145-0.431-0.432v-4.67
		c0-0.929,0.458-1.395,1.38-1.395h0.066v-2.688C94.914,12.227,95.372,11.772,96.291,11.772z M95.759,15.821h3.858v-0.947
		c0-0.792,0.386-1.188,1.152-1.188h4.705v-0.396c0-0.46-0.23-0.689-0.688-0.689h-8.354c-0.449,0-0.673,0.229-0.673,0.689V15.821z
		 M97.344,17.699h6.819c0.728,0,1.087,0.361,1.087,1.085v0.708c0,0.735-0.359,1.1-1.087,1.1h-6.819c-0.746,0-1.121-0.364-1.121-1.1
		v-0.708C96.223,18.06,96.598,17.699,97.344,17.699z M104.027,19.75c0.265,0,0.396-0.131,0.396-0.396v-0.433
		c0-0.262-0.132-0.396-0.396-0.396h-6.545c-0.291,0-0.434,0.134-0.434,0.396v0.433c0,0.265,0.143,0.396,0.434,0.396H104.027z
		 M100.443,15.821h5.031v-1.379h-4.479c-0.369,0-0.552,0.189-0.552,0.568V15.821z"/>
	<path fill="#FFFFFF" d="M111.867,8.946h0.842V6.604c0.012-0.276,0.146-0.419,0.396-0.433c0.312,0.014,0.479,0.156,0.502,0.433
		v2.342h0.944c0.841,0,1.261,0.408,1.261,1.224v5.46c0,0.828-0.42,1.242-1.261,1.242h-0.944v3.808
		c0.662-0.149,1.317-0.332,1.961-0.551c-0.203-0.507-0.4-0.931-0.584-1.275c-0.082-0.114-0.133-0.2-0.153-0.257
		c0.032-0.266,0.153-0.408,0.358-0.433c0.141,0,0.275,0.076,0.416,0.226c0.365,0.598,0.821,1.653,1.361,3.17v0.257
		c-0.023,0.219-0.156,0.341-0.398,0.363c-0.137,0-0.258-0.075-0.359-0.225c-0.115-0.356-0.225-0.693-0.328-1.017
		c-0.059,0.034-0.127,0.057-0.207,0.068c-1.563,0.506-3.285,0.85-5.17,1.034c-0.288-0.034-0.447-0.195-0.48-0.481
		c0.022-0.242,0.183-0.388,0.48-0.433c0.736-0.046,1.475-0.133,2.205-0.258v-3.996h-0.842c-0.817,0-1.225-0.414-1.225-1.242v-5.46
		C110.643,9.354,111.05,8.946,111.867,8.946z M112.709,16.027V9.773h-0.48c-0.461,0-0.688,0.229-0.688,0.69v4.874
		c0,0.46,0.229,0.689,0.688,0.689H112.709z M114.227,16.027c0.459,0,0.689-0.229,0.689-0.689v-4.874c0-0.461-0.23-0.69-0.689-0.69
		h-0.619v6.254H114.227z M119.859,6.448h4.343c0.597,0,0.896,0.282,0.896,0.845c0,0.126-0.097,0.368-0.293,0.725
		c-0.412,0.734-0.986,1.454-1.723,2.153c-0.219,0.207-0.436,0.397-0.655,0.568c0.095,0.048,0.191,0.093,0.296,0.139
		c0.709,0.367,1.875,0.774,3.495,1.223c0.161,0.068,0.246,0.213,0.259,0.432c-0.022,0.241-0.153,0.373-0.396,0.396
		c-0.092,0-0.242-0.029-0.448-0.087c-1.379-0.378-2.584-0.85-3.617-1.413c-0.127-0.059-0.242-0.121-0.347-0.189
		c-0.494,0.288-1.034,0.534-1.619,0.741c-1.112,0.4-2.372,0.719-3.774,0.948c-0.239-0.023-0.371-0.155-0.395-0.396
		c0.012-0.265,0.143-0.409,0.395-0.432c1.529-0.266,2.64-0.534,3.328-0.81c0.459-0.161,0.879-0.345,1.256-0.553
		c-0.311-0.217-0.603-0.447-0.877-0.688c-0.493-0.505-0.896-1.038-1.205-1.602c-0.45,0.448-0.907,0.82-1.381,1.12h-0.274
		c-0.302-0.023-0.459-0.145-0.481-0.362c0.01-0.173,0.096-0.304,0.258-0.395c0.896-0.563,1.638-1.22,2.223-1.965
		C119.325,6.581,119.572,6.448,119.859,6.448z M125.6,13.564c0.262,0.011,0.401,0.148,0.412,0.412
		c-0.011,0.253-0.15,0.386-0.412,0.396h-3.602v1.811h3.1c0.266,0.011,0.407,0.144,0.432,0.396c-0.023,0.263-0.166,0.407-0.432,0.432
		h-3.1v1.843h3.857c0.266,0.013,0.406,0.154,0.432,0.432c-0.025,0.252-0.166,0.384-0.432,0.396h-3.857v2.206
		c-0.014,0.265-0.146,0.407-0.398,0.432c-0.31-0.023-0.47-0.167-0.479-0.432V19.68h-4.292c-0.253-0.012-0.386-0.144-0.396-0.396
		c0.01-0.276,0.143-0.419,0.396-0.432h4.292V17.01h-3.396c-0.252-0.023-0.385-0.169-0.396-0.432
		c0.013-0.252,0.145-0.384,0.396-0.396h3.396v-1.811h-3.859c-0.275-0.011-0.42-0.144-0.433-0.396
		c0.013-0.264,0.155-0.401,0.433-0.412h3.859v-1.189c0.01-0.253,0.17-0.384,0.479-0.396c0.252,0.012,0.387,0.143,0.398,0.396v1.189
		H125.6z M119.361,7.792c0.011,0.014,0.022,0.024,0.033,0.034c0.334,0.645,0.766,1.212,1.293,1.707
		c0.266,0.24,0.573,0.481,0.931,0.724c0.123-0.104,0.239-0.201,0.345-0.293c0.782-0.689,1.396-1.4,1.844-2.138
		c0.182-0.298,0.274-0.475,0.274-0.534h-3.995c-0.195,0-0.357,0.063-0.482,0.189C119.521,7.596,119.439,7.699,119.361,7.792z"/>
</g>
<g>
	<path fill="#FFFFFF" d="M135.604,51.809h-7.821c-1.767,0-3.688-1.109-4.57-2.64l-3.911-6.772c-0.882-1.529-0.882-3.747,0-5.275
		l3.911-6.774c0.884-1.528,2.806-2.639,4.57-2.639h7.821c1.766,0,3.688,1.109,4.568,2.641l3.91,6.771
		c0.883,1.53,0.883,3.748,0,5.276l-3.91,6.775C139.291,50.7,137.368,51.809,135.604,51.809z M127.846,46.671h7.691
		c0.064-0.023,0.161-0.077,0.212-0.125l3.851-6.663c0.012-0.066,0.012-0.181,0-0.248l-3.849-6.66
		c-0.053-0.047-0.147-0.103-0.214-0.125h-7.691c-0.066,0.022-0.162,0.078-0.215,0.125l-3.847,6.66c-0.013,0.067-0.013,0.182,0,0.248
		l3.847,6.663C127.684,46.594,127.779,46.646,127.846,46.671z"/>
</g>
<g>
	<path fill="#FFFFFF" d="M146.302,17.232h-3.063c-0.688,0-1.439-0.437-1.785-1.033l-1.532-2.652c-0.345-0.598-0.345-1.466,0-2.064
		l1.532-2.651c0.346-0.599,1.098-1.033,1.785-1.033h3.063c0.692,0,1.443,0.436,1.79,1.033l1.53,2.651
		c0.346,0.599,0.346,1.467,0,2.064l-1.531,2.652C147.745,16.796,146.994,17.232,146.302,17.232z M143.266,15.219h3.014
		c0.025-0.009,0.062-0.028,0.082-0.048l1.507-2.607c0.005-0.026,0.005-0.07,0-0.098l-1.507-2.607
		c-0.021-0.021-0.057-0.04-0.082-0.048h-3.014c-0.027,0.008-0.063,0.03-0.082,0.048l-1.507,2.607c-0.006,0.026-0.006,0.071,0,0.098
		l1.507,2.607C143.203,15.189,143.238,15.21,143.266,15.219z"/>
</g>
<g>
	<path fill="#FFFFFF" d="M149.766,32.118h-4.177c-0.942,0-1.97-0.594-2.44-1.41l-2.09-3.619c-0.473-0.814-0.473-2,0-2.816l2.09-3.62
		c0.472-0.815,1.498-1.409,2.44-1.409h4.177c0.946,0,1.971,0.594,2.444,1.41l2.088,3.619c0.472,0.816,0.472,2.002,0,2.816
		l-2.091,3.621C151.736,31.524,150.712,32.118,149.766,32.118z M145.623,29.371h4.109c0.035-0.009,0.086-0.04,0.113-0.064
		l2.057-3.559c0.007-0.037,0.007-0.097,0-0.133l-2.057-3.559c-0.027-0.026-0.078-0.057-0.113-0.065h-4.109
		c-0.034,0.009-0.086,0.041-0.111,0.065l-2.058,3.559c-0.009,0.036-0.009,0.096,0,0.133l2.058,3.559
		C145.537,29.33,145.589,29.362,145.623,29.371z"/>
</g>
<g>
	<path fill="#FFFFFF" d="M132.075,14.48h3.713c0.837,0,1.749,0.525,2.167,1.252l1.855,3.213c0.42,0.727,0.42,1.778,0,2.506
		l-1.855,3.214c-0.418,0.725-1.33,1.252-2.167,1.252h-3.713c-0.839,0-1.748-0.527-2.167-1.254l-1.855-3.212
		c-0.42-0.728-0.42-1.779,0-2.503l1.855-3.218C130.327,15.006,131.236,14.48,132.075,14.48z M135.756,16.919h-3.648
		c-0.031,0.013-0.076,0.038-0.103,0.06l-1.825,3.163c-0.007,0.032-0.007,0.086,0,0.116l1.825,3.163
		c0.024,0.022,0.07,0.049,0.103,0.059h3.648c0.032-0.01,0.078-0.037,0.104-0.059l1.824-3.163c0.006-0.029,0.006-0.084,0-0.116
		l-1.824-3.161C135.834,16.956,135.788,16.93,135.756,16.919z"/>
</g>
<path fill="#FFFFFF" d="M116.682,30.341c0-1.753-0.856-2.632-2.57-2.632c-1.754,0-2.629,0.88-2.629,2.641v12.266
	c-0.023,0.06-0.061,0.132-0.096,0.174l-5.922,3.876c-0.064,0.014-0.169,0.014-0.23,0l-3.709-2.255
	c0.119-0.297,0.295-0.598,0.356-0.901v-0.002V30.341c0-1.753-0.858-2.632-2.569-2.632c-1.756,0-2.629,0.878-2.629,2.632V42.62
	c-0.029,0.064-0.078,0.148-0.121,0.196l-7.51,3.848c-0.072,0.014-0.195,0.014-0.267,0l-7.354-3.849
	c-0.05-0.053-0.109-0.148-0.133-0.215V30.34c0-1.753-0.878-2.632-2.631-2.632c-1.815,0-2.722,0.878-2.722,2.632v12.271h0.006
	c0.043,1.746,1.217,3.76,2.834,4.624l7.293,3.912c1.646,0.883,4.034,0.883,5.68,0l5.903-3.167l5.224,3.178
	c1.441,0.875,3.525,0.867,4.96-0.021l6.353-3.939c1.396-0.865,2.403-2.707,2.454-4.433h0.027V30.341H116.682z"/>
<rect x="102.314" y="33.895" fill="#FFFFFF" width="8.734" height="2.289"/>
<rect x="81.757" y="33.893" fill="#FFFFFF" width="14.479" height="2.291"/>
<rect x="102.314" y="39.69" fill="#FFFFFF" width="8.734" height="2.289"/>
<rect x="81.757" y="39.688" fill="#FFFFFF" width="14.479" height="2.291"/>
<rect x="102.314" y="36.706" fill="#EF7622" width="8.734" height="2.533"/>
<rect x="81.757" y="36.706" fill="#EF7622" width="14.479" height="2.533"/>
<path fill="#EF7622" d="M102.314,43.596c-0.047,0.229-0.131,0.436-0.223,0.635l3.252,1.977l5.688-3.725v-0.006h-8.718V43.596
	L102.314,43.596z"/>
<polygon fill="#EF7622" points="88.916,46.225 88.926,46.225 96.236,42.482 96.236,42.477 81.75,42.477 "/>
<g>
	<path fill="#D9272E" d="M34.151,51.206L34.151,51.206c-11.286,0-20.618-8.346-22.17-19.203H26.15c1.768,0,3.202-1.432,3.202-3.199
		c0-1.767-1.434-3.199-3.202-3.199H11.981c1.553-10.854,10.88-19.2,22.163-19.203c0.002,0,0.005,0.001,0.008,0.001
		c1.769,0,3.201-1.433,3.201-3.201c0-1.768-1.432-3.2-3.201-3.201l0,0l0,0l0,0H34.15C18.243,0,5.349,12.897,5.349,28.803
		c0,15.907,12.894,28.804,28.801,28.804h0.001l0,0l0,0l0,0c1.769,0,3.201-1.434,3.201-3.2S35.92,51.207,34.151,51.206z"/>
	<path fill="#EF7622" d="M70.81,28.803c0-4.166-0.894-8.12-2.487-11.694v0.003c-0.784-1.585-2.703-2.236-4.287-1.452
		c-1.586,0.783-2.235,2.703-1.454,4.288v0.005c1.171,2.717,1.826,5.705,1.826,8.852c0,10.702-7.507,19.646-17.542,21.867
		l14.479-37.724l0.662-1.727c0.212-0.43,0.309-0.936,0.309-1.446c0-1.03-0.486-1.944-1.243-2.528l0.002-0.002
		c0,0-0.009-0.007-0.017-0.017c-0.979-0.866-2.015-1.668-3.107-2.396C53.388,1.785,47.909,0,42.008,0l0,0h-0.001
		c-1.767,0-3.2,1.434-3.2,3.201c0,1.769,1.433,3.201,3.201,3.201c0.002,0,0.004-0.001,0.006-0.001
		c4.985,0.001,9.584,1.641,13.304,4.398L39.019,53.262h0.002c-0.137,0.354-0.215,0.739-0.215,1.145c0,1.768,1.433,3.2,3.2,3.2l0,0
		h0.001l0,0l0,0C57.915,57.607,70.81,44.712,70.81,28.803z"/>
</g>
</svg>
